<?xml version="1.0" standalone="no"?>
<!DOCTYPE svg PUBLIC "-//W3C//DTD SVG 20010904//EN"
 "http://www.w3.org/TR/2001/REC-SVG-20010904/DTD/svg10.dtd">
<svg version="1.0" xmlns="http://www.w3.org/2000/svg"
 width="500.000000pt" height="175.000000pt" viewBox="0 0 500.000000 175.000000"
 preserveAspectRatio="xMidYMid meet">
<metadata>
Created by potrace 1.15, written by Peter Selinger 2001-2017
</metadata>
<g transform="translate(0.000000,175.000000) scale(0.100000,-0.100000)"
fill="#000000" stroke="none">
<path d="M1400 870 l0 -840 290 0 290 0 0 840 0 840 -290 0 -290 0 0 -840z
m250 -290 l0 -310 100 0 100 0 0 -50 0 -50 -155 0 -155 0 0 360 0 360 55 0 55
0 0 -310z"/>
<path d="M700 705 l0 -675 290 0 290 0 0 675 0 675 -290 0 -290 0 0 -675z
m250 -125 l0 -310 100 0 100 0 0 -50 0 -50 -160 0 -160 0 0 360 0 360 60 0 60
0 0 -310z"/>
<path d="M0 535 l0 -505 290 0 290 0 0 505 0 505 -290 0 -290 0 0 -505z m460
305 l0 -50 -105 0 -105 0 0 -100 0 -100 80 0 80 0 0 -50 0 -50 -80 0 -80 0 0
-110 0 -110 110 0 110 0 0 -50 0 -50 -170 0 -170 0 0 360 0 360 165 0 165 0 0
-50z"/>
<path d="M4241 901 c-44 -12 -81 -40 -106 -82 -18 -31 -20 -55 -23 -273 -4
-264 2 -298 56 -348 79 -73 243 -61 303 23 24 34 24 38 27 297 l3 264 -25 43
c-15 26 -39 49 -61 59 -43 21 -127 29 -174 17z m109 -131 c19 -19 20 -33 20
-238 0 -242 -5 -262 -60 -262 -58 0 -60 9 -60 260 0 225 0 229 22 244 30 21
54 20 78 -4z"/>
<path d="M2120 530 l0 -370 180 0 180 0 0 60 0 60 -110 0 -110 0 0 100 0 100
80 0 80 0 0 60 0 60 -80 0 -80 0 0 90 0 90 105 0 105 0 0 60 0 60 -175 0 -175
0 0 -370z"/>
<path d="M2532 888 c3 -7 38 -174 79 -370 l74 -358 67 0 c55 0 68 3 72 18 10
32 146 693 146 707 0 12 -15 15 -65 15 l-64 0 -6 -32 c-3 -18 -23 -127 -44
-243 l-37 -210 -17 90 c-9 50 -29 159 -44 243 l-27 152 -69 0 c-51 0 -68 -3
-65 -12z"/>
<path d="M3031 547 c-36 -193 -67 -360 -69 -369 -4 -16 4 -18 61 -18 74 0 72
-2 82 93 l7 67 63 0 c72 0 70 2 80 -93 l7 -67 68 0 c60 0 68 2 64 18 -2 9 -29
152 -59 317 -30 165 -60 324 -66 353 l-10 52 -82 0 -82 0 -64 -353z"/>
<path d="M3390 840 l0 -60 65 0 65 0 0 -310 0 -310 65 0 65 0 0 310 0 310 60
0 60 0 0 60 0 60 -190 0 -190 0 0 -60z"/>
<path d="M3860 530 l0 -370 70 0 70 0 0 370 0 370 -70 0 -70 0 0 -370z"/>
<path d="M4610 530 l0 -370 60 0 60 0 1 218 0 217 77 -217 77 -218 58 0 57 0
0 370 0 370 -60 0 -60 0 -2 -190 -3 -190 -69 190 -69 190 -64 0 -63 0 0 -370z"/>
</g>
</svg>
