<svg version="1.0" xmlns="http://www.w3.org/2000/svg" viewBox="0 0 128.000000 128.000000">
<g transform="translate(0.000000,128.000000) scale(0.100000,-0.100000)"
fill="#000000" stroke="none">
<path className="star" d="M567 1013 l-74 -228 -244 -5 -244 -5 50 -34 c28 -19 75 -53 105 -76
30 -23 96 -72 146 -109 l92 -67 -23 -72 c-13 -40 -46 -142 -73 -227 -28 -85
-49 -156 -47 -158 3 -3 166 113 304 215 31 23 63 46 71 52 15 9 49 -14 338
-225 35 -25 65 -44 67 -42 2 2 -13 58 -35 123 -21 66 -54 168 -73 228 l-35
107 161 117 c89 64 177 128 195 142 l32 26 -241 5 -242 5 -72 223 c-39 122
-74 225 -78 228 -3 3 -39 -97 -80 -223z"/>
</g>
</svg>
